<svg width="36" height="36" viewBox="0 0 36 36" fill="none" xmlns="http://www.w3.org/2000/svg">
<path d="M6 27C6 25.4087 6.63214 23.8826 7.75736 22.7574C8.88258 21.6321 10.4087 21 12 21H24C25.5913 21 27.1174 21.6321 28.2426 22.7574C29.3679 23.8826 30 25.4087 30 27C30 27.7956 29.6839 28.5587 29.1213 29.1213C28.5587 29.6839 27.7956 30 27 30H9C8.20435 30 7.44129 29.6839 6.87868 29.1213C6.31607 28.5587 6 27.7956 6 27Z" stroke="white" stroke-width="2" stroke-linejoin="round"/>
<path d="M18 15C20.4853 15 22.5 12.9853 22.5 10.5C22.5 8.01472 20.4853 6 18 6C15.5147 6 13.5 8.01472 13.5 10.5C13.5 12.9853 15.5147 15 18 15Z" stroke="white" stroke-width="2"/>
</svg>
