<svg width="36" height="36" viewBox="0 0 36 36" fill="none" xmlns="http://www.w3.org/2000/svg">
<path d="M31.5001 31.5L24.9856 24.9855M24.9856 24.9855C26.0999 23.8712 26.9838 22.5483 27.5869 21.0923C28.19 19.6364 28.5004 18.0759 28.5004 16.5C28.5004 14.9241 28.19 13.3636 27.5869 11.9077C26.9838 10.4517 26.0999 9.12884 24.9856 8.0145C23.8712 6.90017 22.5483 6.01624 21.0924 5.41316C19.6364 4.81009 18.076 4.49969 16.5001 4.49969C14.9242 4.49969 13.3637 4.81009 11.9077 5.41316C10.4518 6.01624 9.1289 6.90017 8.01456 8.0145C5.76407 10.265 4.49976 13.3173 4.49976 16.5C4.49976 19.6827 5.76407 22.735 8.01456 24.9855C10.2651 27.236 13.3174 28.5003 16.5001 28.5003C19.6827 28.5003 22.7351 27.236 24.9856 24.9855Z" stroke="white" stroke-width="2" stroke-linecap="round" stroke-linejoin="round"/>
</svg>
