<svg width="18" height="24" viewBox="0 0 18 24" fill="none" xmlns="http://www.w3.org/2000/svg">
<path d="M9 24C13.971 24 18 21 18 15.75C18 13.5 17.25 9.75 14.25 6.75C14.625 9 12.375 9.75 12.375 9.75C13.5 6 10.5 0.75 6 0C6.5355 3 6.75 6 3 9C1.125 10.5 0 13.0935 0 15.75C0 21 4.029 24 9 24ZM9 22.5C6.5145 22.5 4.5 21 4.5 18.375C4.5 17.25 4.875 15.375 6.375 13.875C6.1875 15 7.5 15.75 7.5 15.75C6.9375 13.875 8.25 10.875 10.5 10.5C10.2315 12 10.125 13.5 12 15C12.9375 15.75 13.5 17.046 13.5 18.375C13.5 21 11.4855 22.5 9 22.5Z" fill="#393939"/>
</svg>
