<svg width="24" height="24" viewBox="0 0 24 24" fill="none" xmlns="http://www.w3.org/2000/svg">
<g clip-path="url(#clip0_0_30)">
<path d="M16.9999 4C18.1059 4 18.9549 4.843 19.5839 5.75L19.7969 6.071L19.9919 6.391C20.0539 6.495 20.1129 6.599 20.1699 6.699C20.9569 8.106 21.6419 9.943 22.0949 11.758C22.5449 13.559 22.7939 15.44 22.6349 16.919C22.4749 18.404 21.7099 20 19.9999 20C18.4659 20 17.2569 19.18 16.2749 18.379L15.1649 17.448C14.2419 16.692 13.2319 16 11.9999 16C10.7679 16 9.75688 16.692 8.83588 17.448L7.72588 18.378C6.74188 19.18 5.53288 20 3.99988 20C2.28888 20 1.52388 18.404 1.36488 16.919C1.20688 15.439 1.45488 13.559 1.90488 11.757C2.35788 9.943 3.04288 8.107 3.82988 6.699L4.00788 6.39L4.20288 6.071L4.41588 5.75C5.04488 4.843 5.89388 4 6.99988 4C7.50988 4 8.01688 4.124 8.51488 4.27L9.10788 4.452C9.20588 4.482 9.30288 4.511 9.39988 4.538C10.2649 4.786 11.1499 5 11.9999 5C12.8499 5 13.7349 4.786 14.5999 4.538L15.4849 4.271C15.9829 4.124 16.4899 4 16.9999 4ZM8.49988 8C7.83684 8 7.20095 8.26339 6.73211 8.73223C6.26327 9.20107 5.99988 9.83696 5.99988 10.5C5.99988 11.163 6.26327 11.7989 6.73211 12.2678C7.20095 12.7366 7.83684 13 8.49988 13C9.16292 13 9.79881 12.7366 10.2676 12.2678C10.7365 11.7989 10.9999 11.163 10.9999 10.5C10.9999 9.83696 10.7365 9.20107 10.2676 8.73223C9.79881 8.26339 9.16292 8 8.49988 8ZM15.4999 8C15.2347 8 14.9803 8.10536 14.7928 8.29289C14.6052 8.48043 14.4999 8.73478 14.4999 9V9.5H13.9999C13.7347 9.5 13.4803 9.60536 13.2928 9.79289C13.1052 9.98043 12.9999 10.2348 12.9999 10.5C12.9999 10.7652 13.1052 11.0196 13.2928 11.2071C13.4803 11.3946 13.7347 11.5 13.9999 11.5H14.4999V12C14.4999 12.2652 14.6052 12.5196 14.7928 12.7071C14.9803 12.8946 15.2347 13 15.4999 13C15.7651 13 16.0195 12.8946 16.207 12.7071C16.3945 12.5196 16.4999 12.2652 16.4999 12V11.5H16.9999C17.2651 11.5 17.5195 11.3946 17.707 11.2071C17.8945 11.0196 17.9999 10.7652 17.9999 10.5C17.9999 10.2348 17.8945 9.98043 17.707 9.79289C17.5195 9.60536 17.2651 9.5 16.9999 9.5H16.4999V9C16.4999 8.73478 16.3945 8.48043 16.207 8.29289C16.0195 8.10536 15.7651 8 15.4999 8ZM8.49988 10C8.63249 10 8.75967 10.0527 8.85343 10.1464C8.9472 10.2402 8.99988 10.3674 8.99988 10.5C8.99988 10.6326 8.9472 10.7598 8.85343 10.8536C8.75967 10.9473 8.63249 11 8.49988 11C8.36727 11 8.24009 10.9473 8.14633 10.8536C8.05256 10.7598 7.99988 10.6326 7.99988 10.5C7.99988 10.3674 8.05256 10.2402 8.14633 10.1464C8.24009 10.0527 8.36727 10 8.49988 10Z" fill="#393939"/>
</g>
<defs>
<clipPath id="clip0_0_30">
<rect width="24" height="24" fill="white"/>
</clipPath>
</defs>
</svg>
