<svg width="36" height="36" viewBox="0 0 36 36" fill="none" xmlns="http://www.w3.org/2000/svg">
<path d="M17.3805 11.2485H17.6911L17.9108 11.0288L20.379 8.56063L27.4392 15.6208L24.9713 18.0875L24.7515 18.3072V18.618V24.4455V24.4457C24.7516 24.9076 24.6096 25.3583 24.3447 25.7367C24.0799 26.115 23.7051 26.4027 23.2711 26.5606C23.2711 26.5607 23.271 26.5607 23.271 26.5607L7.75814 32.2021L7.75634 32.2028C7.62268 32.2518 7.47778 32.2615 7.33878 32.2307C7.24169 32.2093 7.15031 32.1687 7.06977 32.1118L15.939 23.2426C16.4664 23.2096 16.9769 23.0377 17.4182 22.7429C17.9115 22.4132 18.296 21.9447 18.5231 21.3965C18.7502 20.8483 18.8096 20.2451 18.6938 19.6632C18.5781 19.0813 18.2923 18.5467 17.8728 18.1272C17.4532 17.7076 16.9187 17.4219 16.3367 17.3061C15.7548 17.1904 15.1516 17.2498 14.6034 17.4768C14.0552 17.7039 13.5867 18.0884 13.2571 18.5818C12.9622 19.023 12.7904 19.5335 12.7573 20.0609L3.88857 28.9297C3.7493 28.7307 3.71315 28.4741 3.79764 28.2422L3.79782 28.2417L9.43773 12.729C9.43776 12.7289 9.43779 12.7288 9.43782 12.7287C9.5958 12.2948 9.88346 11.92 10.2618 11.6552C10.6401 11.3903 11.0909 11.2483 11.5527 11.2485H11.553H17.3805ZM32.0294 10.4101L29.9098 12.5307L23.4705 6.09135L25.5901 3.97076L32.0294 10.4101Z" stroke="white" stroke-width="1.5"/>
</svg>
