<svg width="36" height="36" viewBox="0 0 36 36" fill="none" xmlns="http://www.w3.org/2000/svg">
<g clip-path="url(#clip0_258_408)">
<path d="M3.79432 6.49996L3.79432 6.49999H3.80001H7.30001V8.99999C7.30001 9.71608 7.58448 10.4028 8.09083 10.9092C8.59717 11.4155 9.28393 11.7 10 11.7C10.7161 11.7 11.4029 11.4155 11.9092 10.9092C12.4156 10.4028 12.7 9.71608 12.7 8.99999V6.49999H23.35V8.99999C23.35 9.35456 23.4199 9.70566 23.5555 10.0332C23.6912 10.3608 23.8901 10.6585 24.1408 10.9092C24.3915 11.1599 24.6892 11.3588 25.0168 11.4945C25.3443 11.6302 25.6954 11.7 26.05 11.7C26.4046 11.7 26.7557 11.6302 27.0833 11.4945C27.4108 11.3588 27.7085 11.1599 27.9592 10.9092C28.2099 10.6585 28.4088 10.3608 28.5445 10.0332C28.6802 9.70566 28.75 9.35456 28.75 8.99999V6.49999H32.2455C32.4123 6.50328 32.5768 6.53914 32.7299 6.60557C32.8841 6.6725 33.0236 6.76916 33.1405 6.89003C33.2574 7.01089 33.3493 7.1536 33.411 7.30999C33.4727 7.46639 33.5029 7.6334 33.5001 7.80149L33.5 7.80149V7.80999V30.19H33.4999L33.5001 30.1985C33.5029 30.3666 33.4727 30.5336 33.411 30.69C33.3493 30.8464 33.2574 30.9891 33.1405 31.11C33.0236 31.2308 32.8841 31.3275 32.7299 31.3944C32.5768 31.4608 32.4123 31.4967 32.2455 31.5H3.75449C3.58772 31.4967 3.42318 31.4608 3.27015 31.3944C3.11592 31.3275 2.9764 31.2308 2.85954 31.11C2.74267 30.9891 2.65077 30.8464 2.58907 30.69C2.52737 30.5336 2.49708 30.3666 2.49994 30.1985H2.50001V30.19V7.80999H2.50008L2.49994 7.80153C2.49705 7.63042 2.52849 7.46046 2.59243 7.30171C2.65636 7.14296 2.75148 6.99864 2.87216 6.87729C2.99284 6.75594 3.13662 6.66003 3.29502 6.59521C3.45341 6.5304 3.62319 6.49801 3.79432 6.49996ZM10 26.5H10.5V26V24V23.5H10H8.00001H7.50001V24V26V26.5H8.00001H10ZM10 21.5H10.5V21V19V18.5H10H8.00001H7.50001V19V21V21.5H8.00001H10ZM10 16.5H10.5V16V14V13.5H10H8.00001H7.50001V14V16V16.5H8.00001H10ZM16 26.5H16.5V26V24V23.5H16H14H13.5V24V26V26.5H14H16ZM16 21.5H16.5V21V19V18.5H16H14H13.5V19V21V21.5H14H16ZM16 16.5H16.5V16V14V13.5H16H14H13.5V14V16V16.5H14H16ZM22 26.5H22.5V26V24V23.5H22H20H19.5V24V26V26.5H20H22ZM22 21.5H22.5V21V19V18.5H22H20H19.5V19V21V21.5H20H22ZM22 16.5H22.5V16V14V13.5H22H20H19.5V14V16V16.5H20H22ZM28.5 26.5V26V24V23.5H28H26H25.5V24V26V26.5H26H28H28.5ZM28.5 21.5V21V19V18.5H28H26H25.5V19V21V21.5H26H28H28.5ZM28.5 16.5V16V14V13.5H28H26H25.5V14V16V16.5H26H28H28.5Z" stroke="white"/>
<path d="M10 10C10.2652 10 10.5196 9.89464 10.7071 9.70711C10.8946 9.51957 11 9.26522 11 9V3C11 2.73478 10.8946 2.48043 10.7071 2.29289C10.5196 2.10536 10.2652 2 10 2C9.73478 2 9.48043 2.10536 9.29289 2.29289C9.10536 2.48043 9 2.73478 9 3V9C9 9.26522 9.10536 9.51957 9.29289 9.70711C9.48043 9.89464 9.73478 10 10 10Z" fill="white"/>
<path d="M26 10C26.2652 10 26.5196 9.89464 26.7071 9.70711C26.8946 9.51957 27 9.26522 27 9V3C27 2.73478 26.8946 2.48043 26.7071 2.29289C26.5196 2.10536 26.2652 2 26 2C25.7348 2 25.4804 2.10536 25.2929 2.29289C25.1054 2.48043 25 2.73478 25 3V9C25 9.26522 25.1054 9.51957 25.2929 9.70711C25.4804 9.89464 25.7348 10 26 10Z" fill="white"/>
</g>
<defs>
<clipPath id="clip0_258_408">
<path d="M0 12C0 5.37258 5.37258 0 12 0H24C30.6274 0 36 5.37258 36 12V36H0V12Z" fill="white"/>
</clipPath>
</defs>
</svg>
