<svg width="60" height="60" viewBox="0 0 60 60" fill="none" xmlns="http://www.w3.org/2000/svg">
<g clip-path="url(#clip0_241_940)">
<path d="M37.5 8.7375V0.675C35.6733 0.287876 33.8162 0.0620069 31.95 0L31.575 0C26.1711 0.1147 20.9141 1.77996 16.4298 4.79752C11.9455 7.81507 8.42286 12.0578 6.28132 17.0205C4.13977 21.9832 3.46954 27.4568 4.35043 32.7896C5.23132 38.1223 7.62622 43.0896 11.25 47.1C13.6219 50.0662 16.656 52.4351 20.1089 54.0167C23.5618 55.5983 27.3373 56.3485 31.1326 56.2072C34.9279 56.0658 38.6372 55.0369 41.9629 53.2029C45.2886 51.3689 48.1381 48.7809 50.2828 45.6465C52.4276 42.5122 53.8077 38.9187 54.3127 35.1546C54.8176 31.3904 54.4331 27.5603 53.1902 23.9715C51.9473 20.3828 49.8805 17.1353 47.1557 14.4897C44.4309 11.8441 41.1238 9.87399 37.5 8.7375ZM30 50.8875C26.2232 50.8875 22.5314 49.7671 19.3916 47.6681C16.2519 45.569 13.8054 42.5858 12.3619 39.0958C10.9183 35.6058 10.5425 31.766 11.282 28.0624C12.0216 24.3588 13.8432 20.9578 16.5164 18.2898C19.1896 15.6219 22.5941 13.807 26.2992 13.0747C30.0043 12.3424 33.8433 12.7258 37.3305 14.1762C40.8176 15.6267 43.7961 18.079 45.8889 21.2229C47.9817 24.3667 49.0949 28.0608 49.0875 31.8375C49.0677 36.8903 47.0491 41.7299 43.4727 45.2992C39.8964 48.8686 35.0528 50.8776 30 50.8875ZM27.375 32.6625L21.8625 38.175L25.6125 41.925L32.625 34.8375V17.85H27.375V32.6625Z" fill="#F1F1F1"/>
<g clip-path="url(#clip1_241_940)">
<path d="M37.5 8.7375V0.675C35.6733 0.287876 33.8162 0.0620069 31.95 0L31.575 0C26.1711 0.1147 20.9141 1.77996 16.4298 4.79752C11.9455 7.81507 8.42286 12.0578 6.28132 17.0205C4.13977 21.9832 3.46954 27.4568 4.35043 32.7896C5.23132 38.1223 7.62622 43.0896 11.25 47.1C13.6219 50.0662 16.656 52.4351 20.1089 54.0167C23.5618 55.5983 27.3373 56.3485 31.1326 56.2072C34.9279 56.0658 38.6372 55.0369 41.9629 53.2029C45.2886 51.3689 48.1381 48.7809 50.2828 45.6465C52.4276 42.5122 53.8077 38.9187 54.3127 35.1546C54.8176 31.3904 54.4331 27.5603 53.1902 23.9715C51.9473 20.3828 49.8805 17.1353 47.1557 14.4897C44.4309 11.8441 41.1238 9.87399 37.5 8.7375ZM30 50.8875C26.2232 50.8875 22.5314 49.7671 19.3916 47.6681C16.2519 45.569 13.8054 42.5858 12.3619 39.0958C10.9183 35.6058 10.5425 31.766 11.282 28.0624C12.0216 24.3588 13.8432 20.9578 16.5164 18.2898C19.1896 15.6219 22.5941 13.807 26.2992 13.0747C30.0043 12.3424 33.8433 12.7258 37.3305 14.1762C40.8176 15.6267 43.7961 18.079 45.8889 21.2229C47.9817 24.3667 49.0949 28.0608 49.0875 31.8375C49.0677 36.8903 47.0491 41.7299 43.4727 45.2992C39.8964 48.8686 35.0528 50.8776 30 50.8875ZM27.375 32.6625L21.8625 38.175L25.6125 41.925L32.625 34.8375V17.85H27.375V32.6625Z" fill="#09F986"/>
</g>
</g>
<defs>
<clipPath id="clip0_241_940">
<rect width="60" height="60" fill="white"/>
</clipPath>
<clipPath id="clip1_241_940">
<rect width="60" height="30" fill="white" transform="translate(0 30)"/>
</clipPath>
</defs>
</svg>
